# xmcd
#
# Track frame offsets:
#	150
#	18534
#	35990
#	55037
#	71463
#	82323
#	101805
#	115253
#	133188
#	152946
#	163081
#	183471
#	204159
#	216703
#	232843
#
# Disc length: 3315 seconds
#
# Revision: 0
# Processed by: cddbd v1.5.2PL0 Copyright (c) Steve Scherf et al.
# Submitted via: dBpowerAMP V4.0
#
DISCID=e00cf10f
DTITLE=Brittany Haas - Brittany Haas
DYEAR=2004
DGENRE=Country
TTITLE0=Duck  River
TTITLE1=Dry and Dusty
TTITLE2=Streak O'Lean, Streak O'Fat
TTITLE3=Three Forks of Cheat
TTITLE4=Sail Away Ladies
TTITLE5=Bonaparte's Retreat - Yell in the Shoats
TTITLE6=June Apple
TTITLE7=Fisher's Hornpipe
TTITLE8=Candy Girl
TTITLE9=Mississippi Breakdown
TTITLE10=Black Jack Grove
TTITLE11=Ora Lee
TTITLE12=John Brown's Dream
TTITLE13=The Blackest Crow
TTITLE14=Smith's Reel
EXTD=
EXTT0=
EXTT1=
EXTT2=
EXTT3=
EXTT4=
EXTT5=
EXTT6=
EXTT7=
EXTT8=
EXTT9=
EXTT10=
EXTT11=
EXTT12=
EXTT13=
EXTT14=
PLAYORDER=
